
          <svg data-logo="logo" xmlns="http://www.w3.org/2000/svg" viewBox="0 0 224 43">
            <g id="logogram" transform="translate(0, 1) rotate(0)"><path d="M40.1669 22.2869H33.0024C26.7443 22.2869 21.671 27.3601 21.671 33.6183V40.7827C31.5483 40.0504 39.4345 32.1641 40.1669 22.2869Z" fill="#5E3023"/><path d="M18.6627 40.7827V33.6183C18.6627 27.3601 13.5895 22.2869 7.33131 22.2869H0.16687C0.899233 32.1641 8.78544 40.0504 18.6627 40.7827Z" fill="#5E3023"/><path d="M40.1669 19.2785C39.4345 9.40129 31.5483 1.51508 21.671 0.782715V7.94716C21.671 14.2053 26.7443 19.2785 33.0024 19.2785H40.1669Z" fill="#5E3023"/><path d="M18.6627 0.782715C8.78544 1.51508 0.899233 9.40129 0.16687 19.2785H7.33131C13.5895 19.2785 18.6627 14.2053 18.6627 7.94716V0.782715Z" fill="#5E3023"/><path d="M13.7321 20.7824C16.5123 19.3934 18.7781 17.1276 20.1671 14.3474C21.5562 17.1276 23.8219 19.3934 26.6022 20.7824C23.8219 22.1715 21.5562 24.4373 20.1671 27.2175C18.7781 24.4373 16.5123 22.1715 13.7321 20.7824Z" fill="#4D3933"/></g>
            <g id="logotype" transform="translate(47, 7.5)"><path fill="#5e3023" d="M16.50 28.25L16.50 28.25Q13.28 28.25 11.57 26.48Q9.85 24.71 9.85 21.35L9.85 21.35L9.85 13.26L6.74 13.26L6.74 8.47L19.65 8.47L19.65 13.26L15.77 13.26L15.77 21.42Q15.77 22.26 16.31 22.73Q16.85 23.20 17.62 23.20L17.62 23.20Q17.97 23.20 18.27 23.12Q18.57 23.03 18.84 22.86L18.84 22.86L20.32 27.20Q19.48 27.65 18.55 27.95Q17.62 28.25 16.50 28.25ZM13.56 8.47L8.28 10.04L8.28 8.47Q9.04 8.47 9.54 7.98Q10.03 7.49 10.03 6.72L10.03 6.72L10.03 3.71L15.77 3.71L15.77 5.81Q15.77 6.30 15.52 6.88Q15.28 7.45 14.77 7.89Q14.26 8.33 13.56 8.47L13.56 8.47ZM28.33 28L22.41 28L22.41 2.10L28.33 2.10L28.33 12.63Q28.75 11.27 29.70 10.29Q30.64 9.31 31.88 8.77Q33.13 8.22 34.45 8.22L34.45 8.22Q36.70 8.22 38.34 9.24Q39.98 10.25 40.89 12.11Q41.80 13.96 41.80 16.52L41.80 16.52L41.80 28L35.89 28L35.89 17.50Q35.89 15.50 34.88 14.37Q33.86 13.23 32.14 13.23L32.14 13.23Q30.99 13.23 30.13 13.82Q29.27 14.42 28.80 15.47Q28.33 16.52 28.33 17.85L28.33 17.85L28.33 28ZM54.30 28.25L54.30 28.25Q52.16 28.25 50.22 27.58Q48.28 26.91 46.79 25.64Q45.30 24.36 44.45 22.54Q43.59 20.72 43.59 18.38L43.59 18.38Q43.59 16.13 44.41 14.28Q45.23 12.42 46.65 11.06Q48.07 9.69 49.94 8.96Q51.81 8.22 53.91 8.22L53.91 8.22Q55.63 8.22 57.19 8.68Q58.75 9.13 59.99 10.01Q61.23 10.88 61.95 12.07Q62.67 13.26 62.67 14.73L62.67 14.73Q62.67 16.59 61.62 17.81Q60.56 19.04 58.87 19.74Q57.17 20.44 55.16 20.74Q53.14 21.04 51.19 21L51.19 21Q50.94 21 50.61 20.98Q50.27 20.96 49.99 20.95Q49.72 20.93 49.58 20.93L49.58 20.93Q49.78 21.73 50.47 22.38Q51.15 23.03 52.20 23.41Q53.25 23.80 54.37 23.80L54.37 23.80Q55.49 23.80 56.52 23.41Q57.55 23.03 58.40 22.43Q59.23 21.84 59.83 21.11L59.83 21.11L63.61 24.08Q62.56 25.48 61.05 26.41Q59.55 27.34 57.82 27.79Q56.09 28.25 54.30 28.25ZM51.22 17.11L51.22 17.11Q52.16 17.11 53.18 17.01Q54.20 16.91 55.05 16.64Q55.91 16.38 56.45 15.91Q57.00 15.43 57.00 14.70L57.00 14.70Q57.00 14.10 56.58 13.65Q56.16 13.19 55.45 12.95Q54.76 12.70 53.95 12.70L53.95 12.70Q52.55 12.70 51.50 13.37Q50.45 14.03 49.89 15.03Q49.33 16.03 49.26 17.04L49.26 17.04Q49.58 17.08 50.12 17.10Q50.66 17.11 51.22 17.11ZM80.06 28.25L80.06 28.25Q77.16 28.25 74.95 27.00Q72.75 25.76 71.50 23.52Q70.26 21.28 70.26 18.23L70.26 18.23Q70.26 15.22 71.49 12.98Q72.71 10.74 74.92 9.48Q77.12 8.22 80.06 8.22L80.06 8.22Q81.46 8.22 82.81 8.50Q84.16 8.78 85.36 9.47Q86.57 10.15 87.52 11.32Q88.46 12.49 89.02 14.28L89.02 14.28L83.32 16.10Q82.93 14.73 82.09 14.00Q81.25 13.26 79.96 13.26L79.96 13.26Q78.87 13.26 78.05 13.82Q77.23 14.38 76.77 15.49Q76.32 16.59 76.32 18.23L76.32 18.23Q76.32 19.81 76.77 20.95Q77.23 22.09 78.05 22.68Q78.87 23.27 79.96 23.27L79.96 23.27Q81.53 23.27 82.35 22.33Q83.18 21.38 83.42 20.02L83.42 20.02L89.30 21.42Q88.85 23.17 87.67 24.73Q86.50 26.29 84.61 27.27Q82.72 28.25 80.06 28.25ZM100.15 28.25L100.15 28.25Q97.28 28.25 95.01 27.04Q92.73 25.83 91.42 23.55Q90.11 21.28 90.11 18.23L90.11 18.23Q90.11 15.15 91.44 12.91Q92.77 10.67 95.06 9.45Q97.35 8.22 100.22 8.22L100.22 8.22Q103.13 8.22 105.42 9.43Q107.71 10.64 109.04 12.90Q110.37 15.15 110.37 18.23L110.37 18.23Q110.37 21.28 109.01 23.55Q107.64 25.83 105.33 27.04Q103.02 28.25 100.15 28.25ZM100.15 23.13L100.15 23.13Q101.24 23.13 102.20 22.59Q103.16 22.05 103.76 20.96Q104.35 19.88 104.35 18.23L104.35 18.23Q104.35 16.55 103.76 15.49Q103.16 14.42 102.23 13.89Q101.31 13.37 100.22 13.37L100.22 13.37Q99.14 13.37 98.21 13.89Q97.28 14.42 96.70 15.49Q96.13 16.55 96.13 18.23L96.13 18.23Q96.13 19.88 96.67 20.96Q97.21 22.05 98.14 22.59Q99.07 23.13 100.15 23.13ZM119.23 28L113.28 28L113.28 13.37L111.11 13.37L111.11 8.47L113.28 8.47L113.28 7.45Q113.28 5.46 114.03 4.09Q114.78 2.73 116.06 1.92Q117.34 1.12 118.95 0.82Q120.56 0.52 122.31 0.59L122.31 0.59L122.31 5.60Q121.68 5.56 120.94 5.69Q120.21 5.81 119.72 6.28Q119.23 6.75 119.23 7.80L119.23 7.80L119.23 8.47L122.45 8.47L122.45 13.37L119.23 13.37L119.23 28ZM131.97 28L126.02 28L126.02 13.37L123.85 13.37L123.85 8.47L126.02 8.47L126.02 7.45Q126.02 5.46 126.77 4.09Q127.52 2.73 128.80 1.92Q130.08 1.12 131.69 0.82Q133.30 0.52 135.05 0.59L135.05 0.59L135.05 5.60Q134.42 5.56 133.68 5.69Q132.95 5.81 132.46 6.28Q131.97 6.75 131.97 7.80L131.97 7.80L131.97 8.47L135.19 8.47L135.19 13.37L131.97 13.37L131.97 28ZM146.28 28.25L146.28 28.25Q144.15 28.25 142.20 27.58Q140.26 26.91 138.77 25.64Q137.29 24.36 136.43 22.54Q135.57 20.72 135.57 18.38L135.57 18.38Q135.57 16.13 136.39 14.28Q137.22 12.42 138.63 11.06Q140.05 9.69 141.92 8.96Q143.80 8.22 145.90 8.22L145.90 8.22Q147.61 8.22 149.17 8.68Q150.73 9.13 151.97 10.01Q153.21 10.88 153.93 12.07Q154.65 13.26 154.65 14.73L154.65 14.73Q154.65 16.59 153.60 17.81Q152.55 19.04 150.85 19.74Q149.15 20.44 147.14 20.74Q145.13 21.04 143.17 21L143.17 21Q142.92 21 142.59 20.98Q142.26 20.96 141.98 20.95Q141.70 20.93 141.56 20.93L141.56 20.93Q141.77 21.73 142.45 22.38Q143.13 23.03 144.18 23.41Q145.23 23.80 146.35 23.80L146.35 23.80Q147.47 23.80 148.50 23.41Q149.54 23.03 150.38 22.43Q151.22 21.84 151.81 21.11L151.81 21.11L155.59 24.08Q154.54 25.48 153.04 26.41Q151.53 27.34 149.80 27.79Q148.07 28.25 146.28 28.25ZM143.20 17.11L143.20 17.11Q144.15 17.11 145.16 17.01Q146.18 16.91 147.03 16.64Q147.89 16.38 148.43 15.91Q148.98 15.43 148.98 14.70L148.98 14.70Q148.98 14.10 148.56 13.65Q148.14 13.19 147.44 12.95Q146.74 12.70 145.93 12.70L145.93 12.70Q144.53 12.70 143.48 13.37Q142.43 14.03 141.87 15.03Q141.31 16.03 141.24 17.04L141.24 17.04Q141.56 17.08 142.10 17.10Q142.64 17.11 143.20 17.11ZM166.69 28.25L166.69 28.25Q164.55 28.25 162.61 27.58Q160.67 26.91 159.18 25.64Q157.69 24.36 156.83 22.54Q155.98 20.72 155.98 18.38L155.98 18.38Q155.98 16.13 156.80 14.28Q157.62 12.42 159.04 11.06Q160.46 9.69 162.33 8.96Q164.20 8.22 166.30 8.22L166.30 8.22Q168.02 8.22 169.57 8.68Q171.13 9.13 172.37 10.01Q173.62 10.88 174.33 12.07Q175.05 13.26 175.05 14.73L175.05 14.73Q175.05 16.59 174.00 17.81Q172.95 19.04 171.25 19.74Q169.56 20.44 167.54 20.74Q165.53 21.04 163.57 21L163.57 21Q163.33 21 162.99 20.98Q162.66 20.96 162.38 20.95Q162.10 20.93 161.96 20.93L161.96 20.93Q162.17 21.73 162.85 22.38Q163.54 23.03 164.59 23.41Q165.64 23.80 166.76 23.80L166.76 23.80Q167.88 23.80 168.91 23.41Q169.94 23.03 170.78 22.43Q171.62 21.84 172.22 21.11L172.22 21.11L176.00 24.08Q174.95 25.48 173.44 26.41Q171.94 27.34 170.20 27.79Q168.47 28.25 166.69 28.25ZM163.61 17.11L163.61 17.11Q164.55 17.11 165.57 17.01Q166.58 16.91 167.44 16.64Q168.30 16.38 168.84 15.91Q169.38 15.43 169.38 14.70L169.38 14.70Q169.38 14.10 168.96 13.65Q168.54 13.19 167.84 12.95Q167.14 12.70 166.34 12.70L166.34 12.70Q164.94 12.70 163.89 13.37Q162.84 14.03 162.28 15.03Q161.72 16.03 161.65 17.04L161.65 17.04Q161.96 17.08 162.50 17.10Q163.05 17.11 163.61 17.11Z"/></g>
            
          </svg>
        